<svg xmlns="http://www.w3.org/2000/svg"  viewBox="0 0 100 100"><path fill="#c7ede6" d="M87.215,56.71C88.35,54.555,89,52.105,89,49.5c0-6.621-4.159-12.257-10.001-14.478 C78.999,35.015,79,35.008,79,35c0-11.598-9.402-21-21-21c-9.784,0-17.981,6.701-20.313,15.757C36.211,29.272,34.638,29,33,29 c-7.692,0-14.023,5.793-14.89,13.252C12.906,43.353,9,47.969,9,53.5C9,59.851,14.149,65,20.5,65c0.177,0,0.352-0.012,0.526-0.022 C21.022,65.153,21,65.324,21,65.5C21,76.822,30.178,86,41.5,86c6.437,0,12.175-2.972,15.934-7.614C59.612,80.611,62.64,82,66,82 c4.65,0,8.674-2.65,10.666-6.518C77.718,75.817,78.837,76,80,76c6.075,0,11-4.925,11-11C91,61.689,89.53,58.727,87.215,56.71z"/><path fill="#fdfcef" d="M32.5,36.5V37h3v-0.5c0,0,4.242,0,5.5,0c2.485,0,4.5-2.015,4.5-4.5 c0-2.333-1.782-4.229-4.055-4.455C41.467,27.364,41.5,27.187,41.5,27c0-2.485-2.015-4.5-4.5-4.5c-1.438,0-2.703,0.686-3.527,1.736 C33.333,21.6,31.171,19.5,28.5,19.5c-2.761,0-5,2.239-5,5c0,0.446,0.077,0.87,0.187,1.282C23.045,25.005,22.086,24.5,21,24.5 c-1.781,0-3.234,1.335-3.455,3.055C17.364,27.533,17.187,27.5,17,27.5c-2.485,0-4.5,2.015-4.5,4.5s2.015,4.5,4.5,4.5s9.5,0,9.5,0 H32.5z"/><path fill="#472b29" d="M28.5,19c-3.033,0-5.5,2.467-5.5,5.5c0,0.016,0,0.031,0,0.047C22.398,24.192,21.71,24,21,24 c-1.831,0-3.411,1.261-3.858,3.005C17.095,27.002,17.048,27,17,27c-2.757,0-5,2.243-5,5s2.243,5,5,5h15.5 c0.276,0,0.5-0.224,0.5-0.5S32.776,36,32.5,36H17c-2.206,0-4-1.794-4-4s1.794-4,4-4c0.117,0,0.23,0.017,0.343,0.032l0.141,0.019 c0.021,0.003,0.041,0.004,0.062,0.004c0.246,0,0.462-0.185,0.495-0.437C18.232,26.125,19.504,25,21,25 c0.885,0,1.723,0.401,2.301,1.1c0.098,0.118,0.241,0.182,0.386,0.182c0.078,0,0.156-0.018,0.228-0.056 c0.209-0.107,0.314-0.346,0.254-0.573C24.054,25.218,24,24.852,24,24.5c0-2.481,2.019-4.5,4.5-4.5 c2.381,0,4.347,1.872,4.474,4.263c0.011,0.208,0.15,0.387,0.349,0.45c0.05,0.016,0.101,0.024,0.152,0.024 c0.15,0,0.296-0.069,0.392-0.192C34.638,23.563,35.779,23,37,23c2.206,0,4,1.794,4,4c0,0.117-0.017,0.23-0.032,0.343l-0.019,0.141 c-0.016,0.134,0.022,0.268,0.106,0.373c0.084,0.105,0.207,0.172,0.34,0.185C43.451,28.247,45,29.949,45,32c0,2.206-1.794,4-4,4 h-5.5c-0.276,0-0.5,0.224-0.5,0.5s0.224,0.5,0.5,0.5H41c2.757,0,5-2.243,5-5c0-2.397-1.689-4.413-4.003-4.877 C41.999,27.082,42,27.041,42,27c0-2.757-2.243-5-5-5c-1.176,0-2.293,0.416-3.183,1.164C33.219,20.76,31.055,19,28.5,19L28.5,19z"/><path fill="#472b29" d="M27,26c-1.403,0-2.609,0.999-2.913,2.341C23.72,28.119,23.301,28,22.875,28 c-1.202,0-2.198,0.897-2.353,2.068C20.319,30.022,20.126,30,19.937,30c-1.529,0-2.811,1.2-2.918,2.732 C17.01,32.87,17.114,32.99,17.251,33c0.006,0,0.012,0,0.018,0c0.13,0,0.24-0.101,0.249-0.232c0.089-1.271,1.151-2.268,2.419-2.268 c0.229,0,0.47,0.042,0.738,0.127c0.022,0.007,0.045,0.01,0.067,0.01c0.055,0,0.11-0.02,0.156-0.054 C20.962,30.537,21,30.455,21,30.375c0-1.034,0.841-1.875,1.875-1.875c0.447,0,0.885,0.168,1.231,0.473 c0.047,0.041,0.106,0.063,0.165,0.063c0.032,0,0.063-0.006,0.093-0.019c0.088-0.035,0.148-0.117,0.155-0.212 C24.623,27.512,25.712,26.5,27,26.5c0.208,0,0.425,0.034,0.682,0.107c0.023,0.007,0.047,0.01,0.07,0.01 c0.109,0,0.207-0.073,0.239-0.182c0.038-0.133-0.039-0.271-0.172-0.309C27.517,26.04,27.256,26,27,26L27,26z"/><path fill="#472b29" d="M40.883,27.5c-1.326,0-2.508,0.897-2.874,2.182c-0.038,0.133,0.039,0.271,0.172,0.309 C38.205,29.997,38.228,30,38.25,30c0.109,0,0.209-0.072,0.24-0.182C38.795,28.748,39.779,28,40.883,28 c0.117,0,0.23,0.014,0.342,0.029c0.012,0.002,0.023,0.003,0.035,0.003c0.121,0,0.229-0.092,0.246-0.217 c0.019-0.137-0.077-0.263-0.214-0.281C41.158,27.516,41.022,27.5,40.883,27.5L40.883,27.5z"/><path fill="#fff" d="M27.5,75h-10c-0.276,0-0.5-0.224-0.5-0.5s0.224-0.5,0.5-0.5h10c0.276,0,0.5,0.224,0.5,0.5 S27.777,75,27.5,75z"/><path fill="#fff" d="M30.5,75h-1c-0.276,0-0.5-0.224-0.5-0.5s0.224-0.5,0.5-0.5h1c0.276,0,0.5,0.224,0.5,0.5 S30.777,75,30.5,75z"/><path fill="#fff" d="M35.491,77H26.5c-0.276,0-0.5-0.224-0.5-0.5s0.224-0.5,0.5-0.5h8.991c0.276,0,0.5,0.224,0.5,0.5 S35.767,77,35.491,77z"/><path fill="#fff" d="M24.5,77h-1c-0.276,0-0.5-0.224-0.5-0.5s0.224-0.5,0.5-0.5h1c0.276,0,0.5,0.224,0.5,0.5 S24.777,77,24.5,77z"/><path fill="#fff" d="M21.5,77h-2c-0.276,0-0.5-0.224-0.5-0.5s0.224-0.5,0.5-0.5h2c0.276,0,0.5,0.224,0.5,0.5 S21.777,77,21.5,77z"/><path fill="#fff" d="M27.5,79h-2c-0.276,0-0.5-0.224-0.5-0.5s0.224-0.5,0.5-0.5h2c0.276,0,0.5,0.224,0.5,0.5 S27.776,79,27.5,79z"/><path fill="#fff" d="M30.5,70c-0.177,0-0.823,0-1,0c-0.276,0-0.5,0.224-0.5,0.5c0,0.276,0.224,0.5,0.5,0.5 c0.177,0,0.823,0,1,0c0.276,0,0.5-0.224,0.5-0.5C31,70.224,30.776,70,30.5,70z"/><path fill="#fff" d="M30.5,72c-0.177,0-4.823,0-5,0c-0.276,0-0.5,0.224-0.5,0.5c0,0.276,0.224,0.5,0.5,0.5 c0.177,0,4.823,0,5,0c0.276,0,0.5-0.224,0.5-0.5C31,72.224,30.776,72,30.5,72z"/><path fill="#fff" d="M35.5,74c-0.177,0-2.823,0-3,0c-0.276,0-0.5,0.224-0.5,0.5c0,0.276,0.224,0.5,0.5,0.5 c0.177,0,2.823,0,3,0c0.276,0,0.5-0.224,0.5-0.5C36,74.224,35.776,74,35.5,74z"/><g><path fill="#fff" d="M73.5,23h-10c-0.276,0-0.5-0.224-0.5-0.5s0.224-0.5,0.5-0.5h10c0.276,0,0.5,0.224,0.5,0.5 S73.776,23,73.5,23z"/><path fill="#fff" d="M77.5,23h-2c-0.276,0-0.5-0.224-0.5-0.5s0.224-0.5,0.5-0.5h2c0.276,0,0.5,0.224,0.5,0.5 S77.776,23,77.5,23z"/><path fill="#fff" d="M82.5,25h-10c-0.276,0-0.5-0.224-0.5-0.5s0.224-0.5,0.5-0.5h10c0.276,0,0.5,0.224,0.5,0.5 S82.777,25,82.5,25z"/><path fill="#fff" d="M70.5,25h-1c-0.276,0-0.5-0.224-0.5-0.5s0.224-0.5,0.5-0.5h1c0.276,0,0.5,0.224,0.5,0.5 S70.776,25,70.5,25z"/><path fill="#fff" d="M67.47,25H65.5c-0.276,0-0.5-0.224-0.5-0.5s0.224-0.5,0.5-0.5h1.97c0.276,0,0.5,0.224,0.5,0.5 S67.746,25,67.47,25z"/><path fill="#fff" d="M76.5,21h-5c-0.276,0-0.5-0.224-0.5-0.5s0.224-0.5,0.5-0.5h5c0.276,0,0.5,0.224,0.5,0.5 S76.777,21,76.5,21z"/><path fill="#fff" d="M73.5,27h-2c-0.276,0-0.5-0.224-0.5-0.5s0.224-0.5,0.5-0.5h2c0.276,0,0.5,0.224,0.5,0.5 S73.776,27,73.5,27z"/></g><g><path fill="#fdfcef" d="M83.375,81.5c0,0,1.567,0,3.5,0s3.5-1.567,3.5-3.5c0-1.781-1.335-3.234-3.055-3.455 c0.028-0.179,0.055-0.358,0.055-0.545c0-1.933-1.567-3.5-3.5-3.5c-1.032,0-1.95,0.455-2.59,1.165 c-0.384-1.808-1.987-3.165-3.91-3.165c-2.209,0-4,1.791-4,4c0,0.191,0.03,0.374,0.056,0.558c-0.428-0.344-0.965-0.558-1.556-0.558 c-1.228,0-2.245,0.887-2.455,2.055c-0.179-0.028-0.358-0.055-0.545-0.055c-1.933,0-3.5,1.567-3.5,3.5s1.567,3.5,3.5,3.5 s7.5,0,7.5,0V82h7V81.5z"/><path fill="#472b29" d="M85.125,77c-0.138,0-0.25-0.112-0.25-0.25c0-1.223,0.995-2.218,2.218-2.218 c0.034,0.009,0.737-0.001,1.244,0.136c0.133,0.036,0.212,0.173,0.176,0.306c-0.036,0.134-0.173,0.213-0.306,0.176 c-0.444-0.12-1.1-0.12-1.113-0.118c-0.948,0-1.719,0.771-1.719,1.718C85.375,76.888,85.263,77,85.125,77z"/><circle cx="78.375" cy="81.5" r=".5" fill="#472b29"/><path fill="#472b29" d="M86.875,82h-3.5c-0.276,0-0.5-0.224-0.5-0.5s0.224-0.5,0.5-0.5h3.5c1.654,0,3-1.346,3-3 c0-1.496-1.125-2.768-2.618-2.959c-0.134-0.018-0.255-0.088-0.336-0.196s-0.115-0.244-0.094-0.377 c0.024-0.153,0.049-0.308,0.049-0.468c0-1.654-1.346-3-3-3c-0.85,0-1.638,0.355-2.219,1c-0.125,0.139-0.321,0.198-0.5,0.148 c-0.182-0.049-0.321-0.195-0.36-0.379C80.455,70.165,79.016,69,77.375,69c-1.93,0-3.5,1.57-3.5,3.5 c0,0.143,0.021,0.28,0.041,0.418c0.029,0.203-0.063,0.438-0.242,0.54c-0.179,0.102-0.396,0.118-0.556-0.01 C72.753,73.155,72.324,73,71.875,73c-0.966,0-1.792,0.691-1.963,1.644c-0.048,0.267-0.296,0.446-0.569,0.405 C69.189,75.025,69.035,75,68.875,75c-1.654,0-3,1.346-3,3s1.346,3,3,3h7.5c0.276,0,0.5,0.224,0.5,0.5s-0.224,0.5-0.5,0.5h-7.5 c-2.206,0-4-1.794-4-4s1.794-4,4-4c0.059,0,0.116,0.002,0.174,0.006C69.463,72.82,70.586,72,71.875,72 c0.349,0,0.689,0.061,1.011,0.18c0.165-2.333,2.115-4.18,4.489-4.18c1.831,0,3.466,1.127,4.153,2.774 C82.208,70.276,83.03,70,83.875,70c2.206,0,4,1.794,4,4c0,0.048-0.001,0.095-0.004,0.142c1.743,0.448,3.004,2.027,3.004,3.858 C90.875,80.206,89.081,82,86.875,82z"/><path fill="#472b29" d="M81.375,81c-0.159,0-0.841,0-1,0c-0.276,0-0.5,0.224-0.5,0.5c0,0.276,0.224,0.5,0.5,0.5 c0.159,0,0.841,0,1,0c0.276,0,0.5-0.224,0.5-0.5C81.875,81.224,81.651,81,81.375,81z"/></g><g><path fill="#ee3e54" d="M52,59.3c-10.74,0-22.3-4.319-22.3-13.8c0-9.983,12.088-21.8,22.3-21.8s22.3,11.817,22.3,21.8 C74.3,54.981,62.74,59.3,52,59.3z"/><path fill="#472b29" d="M52,24.4c9.69,0,21.6,11.635,21.6,21.1c0,9-11.197,13.1-21.6,13.1s-21.6-4.1-21.6-13.1 C30.4,36.035,42.31,24.4,52,24.4 M52,23c-10.629,0-23,12.283-23,22.5S41.371,60,52,60s23-4.283,23-14.5S62.629,23,52,23L52,23z"/><path fill="#f6cca4" d="M34.5,63.3c-3.267,0-5.8-3.924-5.8-7.3c0-3.616,1.843-5.3,5.8-5.3c3.198,0,5.8,2.826,5.8,6.3 S37.698,63.3,34.5,63.3z"/><path fill="#472b29" d="M34.5,51.4c2.812,0,5.1,2.512,5.1,5.6s-2.288,5.6-5.1,5.6c-2.574,0-5.1-3.269-5.1-6.6 C29.4,52.776,30.925,51.4,34.5,51.4 M34.5,50C30,50,28,52.134,28,56s2.91,8,6.5,8s6.5-3.134,6.5-7S38.09,50,34.5,50L34.5,50z"/><path fill="#f6cca4" d="M69.5,63.3c-3.198,0-5.8-2.826-5.8-6.3s2.602-6.3,5.8-6.3c3.957,0,5.8,1.684,5.8,5.3 C75.3,59.376,72.767,63.3,69.5,63.3z"/><path fill="#472b29" d="M69.5,51.4c3.575,0,5.1,1.376,5.1,4.6c0,3.331-2.526,6.6-5.1,6.6c-2.812,0-5.1-2.512-5.1-5.6 S66.688,51.4,69.5,51.4 M69.5,50c-3.59,0-6.5,3.134-6.5,7s2.91,7,6.5,7s6.5-4.134,6.5-8S74,50,69.5,50L69.5,50z"/><path fill="#f6cca4" d="M52.123,78.3c-6.663,0-15.109-5.864-18.074-12.549c-1.309-2.951-2.113-7.304,1.488-11.281 l0.181-0.2v-6.962c1.135-1,6.887-5.608,16.405-5.608c9.518,0,15.271,4.608,16.405,5.608v6.962l0.181,0.2 c3.601,3.976,2.796,8.329,1.488,11.281C67.231,72.436,58.786,78.3,52.123,78.3z"/><path fill="#472b29" d="M52.122,42.4c8.744,0,14.216,3.989,15.705,5.23V54v0.54l0.362,0.4 c3.348,3.697,2.591,7.766,1.367,10.527C66.69,71.93,58.543,77.6,52.122,77.6c-6.421,0-14.567-5.67-17.434-12.133 c-1.225-2.761-1.982-6.83,1.367-10.527l0.362-0.4V54v-6.374C37.899,46.381,43.328,42.4,52.122,42.4 M52.122,41 c-11.068,0-17.105,6-17.105,6v7c-9.056,10,6.037,25,17.105,25c11.068,0,26.161-15,17.105-25v-7C69.228,47,63.191,41,52.122,41 L52.122,41z"/><ellipse cx="46.5" cy="53.5" fill="#fff" rx="3.5" ry="4.5"/><path fill="#78a0cf" d="M46.5,58c1.933,0,3.5-2.015,3.5-4.5c0-0.702-0.127-1.365-0.35-1.957 C49.195,51.207,48.674,51,48.111,51C46.393,51,45,52.791,45,55c0,1.166,0.394,2.206,1.013,2.937C46.174,57.967,46.333,58,46.5,58z"/><path fill="#472b29" d="M46.5,58.25c-0.174,0-0.333-0.03-0.487-0.059c-0.057-0.01-0.153-0.049-0.19-0.093 c-0.474-0.56-0.809-1.269-0.968-2.048c-0.027-0.135,0.06-0.267,0.195-0.295c0.134-0.027,0.267,0.06,0.295,0.195 c0.136,0.667,0.413,1.272,0.804,1.758c0.133,0.025,0.24,0.042,0.352,0.042c1.792,0,3.25-1.906,3.25-4.25 c0-0.627-0.104-1.232-0.308-1.799c-0.788-0.552-1.674-0.584-2.445-0.155c-0.12,0.067-0.273,0.025-0.34-0.096 c-0.067-0.121-0.024-0.273,0.097-0.34c0.959-0.536,2.083-0.477,3.045,0.232c0.039,0.029,0.068,0.068,0.085,0.113 c0.243,0.644,0.366,1.332,0.366,2.045C50.25,56.119,48.568,58.25,46.5,58.25z"/><path fill="#472b29" d="M45.055,54.5c-0.012,0-0.024-0.001-0.037-0.003c-0.137-0.02-0.231-0.147-0.211-0.283 c0.02-0.134,0.044-0.266,0.074-0.395c0.131-0.576,0.354-1.102,0.66-1.562c0.078-0.115,0.232-0.145,0.347-0.069 c0.115,0.077,0.146,0.232,0.069,0.347c-0.273,0.409-0.471,0.878-0.589,1.396c-0.027,0.117-0.049,0.235-0.066,0.356 C45.284,54.41,45.177,54.5,45.055,54.5z"/><path fill="#836f61" d="M67,58c-10.5,4.268-19.5,4.268-30,0c-2,2.845,1,5.691,3,4.742c0,2.845,3,4.742,6,3.794 c1,2.845,4,2.845,6,1.897c2,0.948,5,0.948,6-1.897c3,0.948,6-0.948,6-3.794C66,63.691,69,60.845,67,58z"/><path fill="#472b29" d="M54.438,69.502c-0.798,0-1.637-0.175-2.438-0.52c-1.443,0.622-3.011,0.691-4.239,0.179 c-0.915-0.381-1.619-1.077-2.057-2.026c-1.546,0.355-3.152,0.055-4.372-0.838c-0.981-0.719-1.609-1.751-1.783-2.899 c-0.995,0.155-2.097-0.289-2.868-1.204c-0.854-1.013-1.327-2.723-0.09-4.481c0.134-0.191,0.38-0.263,0.598-0.176 c10.382,4.22,19.241,4.22,29.623,0c0.216-0.088,0.463-0.015,0.598,0.176c1.236,1.759,0.764,3.468-0.09,4.481 c-0.771,0.914-1.87,1.359-2.868,1.204c-0.173,1.148-0.802,2.18-1.783,2.899c-1.22,0.893-2.825,1.194-4.372,0.838 c-0.438,0.949-1.142,1.645-2.057,2.026C55.692,69.389,55.078,69.502,54.438,69.502z M52,67.933c0.073,0,0.146,0.016,0.214,0.048 c0.963,0.457,2.426,0.764,3.64,0.257c0.791-0.33,1.354-0.958,1.674-1.868c0.09-0.254,0.361-0.393,0.623-0.311 c1.378,0.436,2.845,0.223,3.926-0.569c0.918-0.672,1.423-1.648,1.423-2.748c0-0.171,0.088-0.331,0.233-0.423 c0.145-0.092,0.326-0.103,0.481-0.029c0.711,0.337,1.694,0.024,2.34-0.741c0.277-0.329,1.062-1.461,0.246-2.93 c-10.35,4.119-19.25,4.119-29.6,0c-0.816,1.469-0.032,2.601,0.246,2.93c0.646,0.766,1.629,1.078,2.34,0.741 c0.156-0.074,0.337-0.063,0.481,0.029c0.145,0.092,0.233,0.251,0.233,0.423c0,1.1,0.505,2.075,1.423,2.748 c1.081,0.792,2.549,1.005,3.926,0.569c0.259-0.082,0.532,0.057,0.623,0.311c0.32,0.91,0.883,1.538,1.674,1.868 c1.215,0.506,2.677,0.199,3.64-0.257C51.854,67.949,51.927,67.933,52,67.933z"/><ellipse cx="48.111" cy="55" fill="#472b29" rx="1.556" ry="2"/><path fill="#472b29" d="M42,49c-1-4,4-8,7-2C46,45,43,46,42,49z"/><path fill="#472b29" d="M61.87,49c1-4-4-8-7-2C57.87,45,60.87,46,61.87,49z"/><polygon fill="#472b29" points="39,52 35,56 35,48 39,45"/><polygon fill="#472b29" points="65,52 69,56 69,48 65,45"/><circle cx="52" cy="34" r="7" fill="#fff"/><path fill="#472b29" d="M45.25,32.39c-0.022,0-0.044-0.003-0.066-0.009c-0.133-0.036-0.211-0.174-0.175-0.307 c0.416-1.514,1.335-2.876,2.589-3.835c0.11-0.084,0.267-0.063,0.351,0.047c0.083,0.11,0.063,0.267-0.047,0.35 c-1.167,0.893-2.024,2.161-2.411,3.57C45.46,32.317,45.36,32.39,45.25,32.39z"/><path fill="#472b29" d="M52,41.25c-3.998,0-7.25-3.252-7.25-7.25c0-0.138,0.112-0.25,0.25-0.25s0.25,0.112,0.25,0.25 c0,3.722,3.028,6.75,6.75,6.75s6.75-3.028,6.75-6.75s-3.028-6.75-6.75-6.75c-0.831,0-1.642,0.149-2.411,0.443 c-0.127,0.049-0.273-0.015-0.323-0.144c-0.049-0.129,0.015-0.273,0.144-0.323C50.236,26.91,51.107,26.75,52,26.75 c3.998,0,7.25,3.252,7.25,7.25S55.998,41.25,52,41.25z"/><polygon fill="#ee3e54" points="55,29 52,31 49,29 46,37 49,37 50.25,32.25 52,34 53.75,32.25 55,37 58,37"/><path fill="#472b29" d="M56.641,33.625c-0.101,0-0.196-0.062-0.234-0.162l-1.53-4.08l-2.738,1.825 c-0.084,0.056-0.193,0.056-0.277,0l-2.738-1.825l-0.452,1.205c-0.049,0.129-0.195,0.194-0.322,0.146 c-0.129-0.049-0.195-0.193-0.146-0.322l0.563-1.5c0.026-0.071,0.084-0.127,0.157-0.15c0.071-0.024,0.152-0.012,0.215,0.03 L52,30.699l2.861-1.907c0.063-0.042,0.144-0.054,0.215-0.03c0.073,0.023,0.131,0.079,0.157,0.15l1.641,4.375 c0.049,0.129-0.017,0.273-0.146,0.322C56.7,33.62,56.67,33.625,56.641,33.625z"/><path fill="#472b29" d="M58,37.25h-3c-0.114,0-0.213-0.077-0.242-0.186l-1.139-4.329l-1.442,1.442 c-0.098,0.098-0.256,0.098-0.354,0l-1.442-1.442l-1.139,4.329c-0.029,0.11-0.128,0.186-0.242,0.186h-3 c-0.082,0-0.159-0.04-0.206-0.108c-0.046-0.067-0.057-0.153-0.028-0.23l1.875-5c0.049-0.129,0.192-0.195,0.322-0.146 c0.129,0.049,0.195,0.193,0.146,0.322l-1.748,4.662h2.446l1.201-4.564c0.023-0.086,0.09-0.154,0.176-0.178 c0.086-0.022,0.179,0.001,0.242,0.065L52,33.646l1.573-1.573c0.063-0.063,0.155-0.087,0.242-0.065 c0.086,0.023,0.153,0.091,0.176,0.178l1.201,4.564h2.446l-0.67-1.787c-0.049-0.129,0.017-0.273,0.146-0.322 c0.127-0.047,0.273,0.017,0.322,0.146l0.797,2.125c0.029,0.077,0.018,0.163-0.028,0.23C58.159,37.21,58.082,37.25,58,37.25z"/><path fill="#ee3e54" d="M68.25,50.75C66.196,45.795,59.593,42.3,52,42.3s-14.196,3.495-16.25,8.45 C34.336,49.441,33.7,48.588,33.7,47c0-5.679,8.209-10.3,18.3-10.3S70.3,41.321,70.3,47C70.3,48.588,69.664,49.441,68.25,50.75z"/><path fill="#472b29" d="M52,37.4c9.54,0,17.6,4.396,17.6,9.6c0,1.059-0.315,1.708-1.139,2.569 C65.91,44.849,59.401,41.6,52,41.6s-13.91,3.249-16.461,7.969C34.715,48.708,34.4,48.059,34.4,47C34.4,41.796,42.46,37.4,52,37.4 M52,36c-10.493,0-19,4.925-19,11c0,2.207,1.134,3.257,3.066,4.979C37.466,46.871,44.061,43,52,43s14.534,3.871,15.934,8.979 C69.866,50.257,71,49.207,71,47C71,40.925,62.493,36,52,36L52,36z"/><path fill="#c07853" d="M46,71.141c2.667,5.625,9.333,5.625,12,0C54.153,71.869,50.142,71.817,46,71.141z"/><path fill="#fff" d="M58,71.141c-3.847,0.924-7.858,0.858-12,0c0.341,0.912,0.755,1.687,1.212,2.359h9.577 C57.245,72.827,57.659,72.053,58,71.141z"/><path fill="#472b29" d="M52,75.859c-2.703,0-5.115-1.684-6.452-4.505c-0.08-0.168-0.06-0.366,0.052-0.515 s0.299-0.222,0.48-0.193c4.219,0.689,8.198,0.69,11.826,0.002c0.189-0.034,0.375,0.037,0.489,0.186 c0.115,0.149,0.137,0.35,0.056,0.52C57.115,74.176,54.703,75.859,52,75.859z M46.92,71.785c1.21,1.942,3.056,3.074,5.08,3.074 c2.017,0,3.855-1.124,5.066-3.052C53.898,72.29,50.495,72.283,46.92,71.785z"/><path fill="#472b29" d="M46.5,58.25c-2.068,0-3.75-2.131-3.75-4.75c0-0.935,0.213-1.839,0.618-2.615 c0.064-0.123,0.216-0.169,0.337-0.106c0.123,0.064,0.17,0.215,0.106,0.337c-0.367,0.705-0.561,1.53-0.561,2.385 c0,2.344,1.458,4.25,3.25,4.25s3.25-1.906,3.25-4.25s-1.458-4.25-3.25-4.25c-0.573,0-1.136,0.198-1.629,0.574 c-0.11,0.083-0.268,0.063-0.35-0.048c-0.084-0.11-0.063-0.267,0.047-0.35c0.581-0.442,1.249-0.676,1.932-0.676 c2.068,0,3.75,2.131,3.75,4.75S48.568,58.25,46.5,58.25z"/><ellipse cx="57.5" cy="53.5" fill="#fff" rx="3.5" ry="4.5"/><path fill="#78a0cf" d="M57.5,58c-1.933,0-3.5-2.015-3.5-4.5c0-0.702,0.127-1.365,0.35-1.957 C54.805,51.207,55.326,51,55.889,51C57.607,51,59,52.791,59,55c0,1.166-0.394,2.206-1.013,2.937C57.826,57.967,57.667,58,57.5,58z"/><path fill="#472b29" d="M57.5,58.25c-2.068,0-3.75-2.131-3.75-4.75c0-0.714,0.123-1.402,0.366-2.045 c0.017-0.045,0.047-0.084,0.085-0.113c0.533-0.393,1.1-0.592,1.687-0.592c0.138,0,0.25,0.112,0.25,0.25s-0.112,0.25-0.25,0.25 c-0.457,0-0.904,0.152-1.331,0.451c-0.205,0.567-0.308,1.172-0.308,1.799c0,2.344,1.458,4.25,3.25,4.25 c0.12,0,0.236-0.02,0.352-0.042c0.58-0.72,0.898-1.678,0.898-2.708c0-0.138,0.112-0.25,0.25-0.25s0.25,0.112,0.25,0.25 c0,1.18-0.381,2.281-1.072,3.098c-0.037,0.044-0.089,0.074-0.146,0.084C57.833,58.22,57.674,58.25,57.5,58.25z"/><path fill="#472b29" d="M58.811,53.875c-0.109,0-0.209-0.072-0.24-0.182c-0.257-0.904-0.787-1.662-1.454-2.079 c-0.117-0.073-0.152-0.228-0.079-0.345c0.074-0.117,0.228-0.152,0.345-0.079c0.781,0.49,1.374,1.33,1.668,2.366 c0.038,0.133-0.039,0.271-0.172,0.309C58.856,53.872,58.833,53.875,58.811,53.875z"/><ellipse cx="55.889" cy="55" fill="#472b29" rx="1.556" ry="2"/><path fill="#472b29" d="M57.5,58.25c-2.068,0-3.75-2.131-3.75-4.75s1.682-4.75,3.75-4.75c0.752,0,1.478,0.28,2.098,0.81 c0.105,0.09,0.117,0.247,0.027,0.352c-0.09,0.105-0.247,0.117-0.353,0.028c-0.528-0.451-1.141-0.69-1.772-0.69 c-1.792,0-3.25,1.906-3.25,4.25s1.458,4.25,3.25,4.25s3.25-1.906,3.25-4.25c0-0.882-0.206-1.728-0.594-2.448 c-0.066-0.122-0.021-0.273,0.101-0.339c0.12-0.065,0.273-0.021,0.338,0.101c0.428,0.792,0.655,1.721,0.655,2.685 C61.25,56.119,59.568,58.25,57.5,58.25z"/><ellipse cx="52" cy="60.5" fill="#f6cca4" rx="6.5" ry="5"/><path fill="#472b29" d="M52,66c-3.86,0-7-2.467-7-5.5s3.14-5.5,7-5.5s7,2.467,7,5.5S55.86,66,52,66z M52,56 c-3.309,0-6,2.019-6,4.5s2.691,4.5,6,4.5s6-2.019,6-4.5S55.309,56,52,56z"/><g><path fill="#f6cca4" d="M52.875,63.443C52.592,63.481,52.299,63.5,52,63.5c-0.573,0-1.121-0.071-1.625-0.202"/><path fill="#472b29" d="M52,63.75c-0.582,0-1.15-0.071-1.688-0.21c-0.134-0.034-0.214-0.171-0.18-0.304 c0.035-0.134,0.17-0.215,0.305-0.179c0.758,0.196,1.604,0.244,2.405,0.139c0.13-0.018,0.262,0.078,0.281,0.215 c0.018,0.137-0.079,0.262-0.215,0.28C52.61,63.73,52.305,63.75,52,63.75z"/></g><g><path fill="#f6cca4" d="M56.402,61.125c-0.069,0.218-0.174,0.427-0.31,0.625c-0.402,0.583-1.075,1.066-1.913,1.375"/><path fill="#472b29" d="M54.179,63.375c-0.102,0-0.197-0.063-0.234-0.163c-0.048-0.129,0.018-0.273,0.147-0.321 c0.788-0.291,1.425-0.747,1.793-1.283c0.124-0.18,0.218-0.368,0.278-0.559c0.042-0.132,0.181-0.205,0.314-0.163 c0.132,0.042,0.205,0.182,0.163,0.314c-0.076,0.238-0.191,0.471-0.343,0.691c-0.427,0.62-1.148,1.141-2.032,1.468 C54.237,63.371,54.208,63.375,54.179,63.375z"/></g><g><path fill="#f6cca4" d="M55.625,58.722c0.55,0.498,0.875,1.112,0.875,1.778c0,0.214-0.034,0.423-0.098,0.625"/><path fill="#472b29" d="M56.402,61.375c-0.025,0-0.05-0.004-0.076-0.012c-0.131-0.042-0.205-0.182-0.163-0.314 c0.057-0.179,0.086-0.364,0.086-0.549c0-0.573-0.274-1.123-0.793-1.593c-0.102-0.093-0.11-0.251-0.018-0.353 c0.094-0.103,0.252-0.11,0.354-0.018c0.626,0.567,0.957,1.246,0.957,1.963c0,0.236-0.037,0.472-0.109,0.701 C56.607,61.307,56.508,61.375,56.402,61.375z"/></g><g><path fill="#472b29" d="M50.5,73.75h-2.75c-0.138,0-0.25-0.112-0.25-0.25s0.112-0.25,0.25-0.25h2.75 c0.138,0,0.25,0.112,0.25,0.25S50.638,73.75,50.5,73.75z"/></g><g><path fill="#472b29" d="M56,73.75h-3.875c-0.138,0-0.25-0.112-0.25-0.25s0.112-0.25,0.25-0.25H56 c0.138,0,0.25,0.112,0.25,0.25S56.138,73.75,56,73.75z"/></g><g><path fill="#472b29" d="M35,55.25c-0.064,0-0.128-0.024-0.177-0.073c-1.851-1.851-3.694-0.963-3.711-0.953 c-0.124,0.061-0.273,0.012-0.335-0.112c-0.062-0.124-0.012-0.274,0.112-0.335c0.022-0.011,2.187-1.056,4.289,1.047 c0.098,0.098,0.098,0.256,0,0.354C35.128,55.226,35.064,55.25,35,55.25z"/></g><g><path fill="#472b29" d="M69,55.25c-0.064,0-0.128-0.024-0.177-0.073c-0.098-0.098-0.098-0.256,0-0.354 c2.103-2.103,4.267-1.058,4.289-1.047c0.123,0.062,0.173,0.211,0.112,0.334c-0.061,0.123-0.211,0.175-0.334,0.113 c-0.076-0.036-1.871-0.888-3.712,0.953C69.128,55.226,69.064,55.25,69,55.25z"/></g></g></svg>